<svg xmlns="http://www.w3.org/2000/svg" xmlns:xlink="http://www.w3.org/1999/xlink" version="1.1" width="256" height="256" viewBox="0 0 256 256" xml:space="preserve">

<defs>
</defs>
<g style="stroke: none; stroke-width: 0; stroke-dasharray: none; stroke-linecap: butt; stroke-linejoin: miter; stroke-miterlimit: 10; fill: none; fill-rule: nonzero; opacity: 1;" transform="translate(1.4065934065934016 1.4065934065934016) scale(2.81 2.81)" >
	<path d="M 76.68 15.544 C 66.428 15.041 55.999 9.902 45.683 0.269 c -0.385 -0.358 -0.98 -0.358 -1.365 0 C 34.001 9.902 23.572 15.041 13.32 15.544 c -0.533 0.026 -0.951 0.466 -0.951 0.999 V 39.23 c 0 27.91 12.687 40.33 26.617 47.892 c 0.141 0.077 0.278 0.149 0.418 0.224 c 0.269 0.144 0.538 0.289 0.807 0.43 c 0.447 0.234 0.885 0.456 1.316 0.671 c 0.087 0.044 0.175 0.086 0.262 0.13 c 0.388 0.193 0.768 0.378 1.141 0.556 c 0.105 0.05 0.21 0.1 0.314 0.15 c 0.459 0.218 0.909 0.429 1.338 0.626 C 44.715 89.97 44.857 90 45 90 s 0.285 -0.03 0.417 -0.091 c 0.427 -0.196 0.875 -0.406 1.332 -0.624 c 0.109 -0.052 0.218 -0.104 0.326 -0.156 c 0.366 -0.175 0.739 -0.358 1.121 -0.547 c 0.094 -0.046 0.187 -0.092 0.281 -0.139 c 0.428 -0.214 0.862 -0.435 1.306 -0.666 c 0.283 -0.148 0.565 -0.3 0.848 -0.452 c 0.125 -0.067 0.249 -0.132 0.375 -0.201 c 13.933 -7.561 26.624 -19.98 26.624 -47.896 V 16.543 C 77.631 16.01 77.213 15.57 76.68 15.544 z M 43.309 87.093 c -0.206 -0.1 -0.412 -0.203 -0.619 -0.305 c -0.466 -0.231 -0.943 -0.474 -1.43 -0.726 c -0.155 -0.08 -0.31 -0.158 -0.464 -0.24 c -0.627 -0.331 -1.269 -0.685 -1.92 -1.054 c -0.141 -0.08 -0.282 -0.161 -0.423 -0.242 c -0.688 -0.397 -1.385 -0.811 -2.088 -1.253 c -0.039 -0.024 -0.077 -0.05 -0.116 -0.075 c -0.709 -0.448 -1.422 -0.92 -2.136 -1.416 c -0.065 -0.045 -0.131 -0.089 -0.196 -0.134 c -0.653 -0.458 -1.304 -0.946 -1.952 -1.446 c -0.203 -0.157 -0.406 -0.313 -0.606 -0.474 c -0.543 -0.432 -1.08 -0.886 -1.613 -1.35 c -0.324 -0.284 -0.644 -0.573 -0.961 -0.868 c -0.237 -0.218 -0.468 -0.447 -0.701 -0.671 c -0.336 -0.326 -0.669 -0.657 -0.997 -0.997 v -9.269 c 0 -9.877 8.036 -17.913 17.913 -17.913 c 9.877 0 17.913 8.036 17.913 17.913 v 9.269 c -0.327 0.339 -0.659 0.669 -0.995 0.995 c -0.234 0.226 -0.466 0.455 -0.703 0.674 c -0.317 0.294 -0.636 0.583 -0.96 0.866 c -0.533 0.464 -1.071 0.918 -1.614 1.351 c -0.201 0.161 -0.403 0.317 -0.606 0.474 c -0.648 0.5 -1.3 0.988 -1.953 1.446 c -0.065 0.046 -0.132 0.089 -0.197 0.135 c -0.712 0.495 -1.425 0.967 -2.132 1.414 c -0.04 0.025 -0.08 0.052 -0.12 0.077 c -0.702 0.441 -1.398 0.854 -2.085 1.251 c -0.142 0.082 -0.284 0.164 -0.426 0.244 c -0.649 0.368 -1.29 0.721 -1.916 1.051 c -0.157 0.083 -0.315 0.162 -0.472 0.244 c -0.484 0.251 -0.959 0.493 -1.422 0.722 c -0.207 0.103 -0.415 0.206 -0.622 0.307 c -0.581 0.282 -1.152 0.556 -1.689 0.805 C 44.462 87.649 43.89 87.375 43.309 87.093 z M 75.631 39.23 c 0 16.06 -4.354 26.8 -10.718 34.4 v -7.057 c 0 -9.032 -6.048 -16.666 -14.304 -19.095 c 4.931 -2.167 8.386 -7.091 8.386 -12.814 c 0 -7.717 -6.278 -13.996 -13.996 -13.996 c -7.717 0 -13.996 6.279 -13.996 13.996 c 0 5.722 3.456 10.647 8.386 12.814 c -8.255 2.43 -14.304 10.064 -14.304 19.095 v 7.057 c -6.364 -7.6 -10.718 -18.341 -10.718 -34.4 V 17.482 C 24.567 16.714 34.863 11.632 45 2.362 c 10.137 9.27 20.434 14.353 30.631 15.121 V 39.23 z M 45 46.66 c -6.614 0 -11.996 -5.381 -11.996 -11.996 c 0 -6.615 5.381 -11.996 11.996 -11.996 s 11.996 5.381 11.996 11.996 C 56.996 41.279 51.614 46.66 45 46.66 z" style="stroke: none; stroke-width: 1; stroke-dasharray: none; stroke-linecap: butt; stroke-linejoin: miter; stroke-miterlimit: 10; fill: rgb(255,255,255); fill-rule: nonzero; opacity: 1;" transform=" matrix(1 0 0 1 0 0) " stroke-linecap="round" />
</g>
</svg>