<svg xmlns="http://www.w3.org/2000/svg" xmlns:xlink="http://www.w3.org/1999/xlink" version="1.1" width="256" height="256" viewBox="0 0 256 256" xml:space="preserve">

<defs>
</defs>
<g style="stroke: none; stroke-width: 0; stroke-dasharray: none; stroke-linecap: butt; stroke-linejoin: miter; stroke-miterlimit: 10; fill: none; fill-rule: nonzero; opacity: 1;" transform="translate(1.4065934065934016 1.4065934065934016) scale(2.81 2.81)" >
	<path d="M 77.481 17.327 L 61.351 1.196 C 60.579 0.425 59.555 0 58.464 0 H 15.405 c -2.251 0 -4.083 1.832 -4.083 4.083 v 81.834 c 0 2.251 1.832 4.083 4.083 4.083 h 59.189 c 2.251 0 4.083 -1.832 4.083 -4.083 V 20.214 C 78.678 19.124 78.253 18.099 77.481 17.327 z M 75.263 17.937 H 62.55 c -0.998 0 -1.81 -0.812 -1.81 -1.809 V 3.414 L 75.263 17.937 z M 76.678 85.917 c 0 1.148 -0.935 2.083 -2.083 2.083 H 15.405 c -1.148 0 -2.083 -0.935 -2.083 -2.083 V 4.083 C 13.322 2.935 14.257 2 15.405 2 h 43.059 c 0.094 0 0.185 0.015 0.276 0.027 v 14.101 c 0 2.1 1.709 3.809 3.81 3.809 h 14.1 c 0.013 0.092 0.028 0.184 0.028 0.277 V 85.917 z" style="stroke: none; stroke-width: 1; stroke-dasharray: none; stroke-linecap: butt; stroke-linejoin: miter; stroke-miterlimit: 10; fill: rgb(255,255,255); fill-rule: nonzero; opacity: 1;" transform=" matrix(1 0 0 1 0 0) " stroke-linecap="round" />
	<path d="M 32.02 25.021 c -6.283 0 -11.395 5.112 -11.395 11.395 s 5.111 11.395 11.395 11.395 S 43.415 42.7 43.415 36.417 S 38.303 25.021 32.02 25.021 z M 32.02 45.812 c -5.18 0 -9.395 -4.214 -9.395 -9.395 s 4.214 -9.395 9.395 -9.395 c 5.181 0 9.395 4.214 9.395 9.395 S 37.201 45.812 32.02 45.812 z" style="stroke: none; stroke-width: 1; stroke-dasharray: none; stroke-linecap: butt; stroke-linejoin: miter; stroke-miterlimit: 10; fill: rgb(255,255,255); fill-rule: nonzero; opacity: 1;" transform=" matrix(1 0 0 1 0 0) " stroke-linecap="round" />
	<path d="M 35.684 32.179 l -5.676 6.226 l -1.584 -2.16 c -0.327 -0.445 -0.951 -0.542 -1.397 -0.215 c -0.445 0.326 -0.542 0.952 -0.215 1.397 l 2.306 3.145 c 0.177 0.242 0.454 0.391 0.753 0.407 c 0.018 0.001 0.036 0.001 0.053 0.001 c 0.28 0 0.549 -0.118 0.739 -0.326 l 6.499 -7.128 c 0.372 -0.408 0.343 -1.041 -0.065 -1.413 C 36.688 31.742 36.057 31.771 35.684 32.179 z" style="stroke: none; stroke-width: 1; stroke-dasharray: none; stroke-linecap: butt; stroke-linejoin: miter; stroke-miterlimit: 10; fill: rgb(255,255,255); fill-rule: nonzero; opacity: 1;" transform=" matrix(1 0 0 1 0 0) " stroke-linecap="round" />
	<path d="M 68.375 30.859 H 50.688 c -0.553 0 -1 0.448 -1 1 s 0.447 1 1 1 h 17.688 c 0.553 0 1 -0.448 1 -1 S 68.928 30.859 68.375 30.859 z" style="stroke: none; stroke-width: 1; stroke-dasharray: none; stroke-linecap: butt; stroke-linejoin: miter; stroke-miterlimit: 10; fill: rgb(255,255,255); fill-rule: nonzero; opacity: 1;" transform=" matrix(1 0 0 1 0 0) " stroke-linecap="round" />
	<path d="M 68.375 39.974 H 50.688 c -0.553 0 -1 0.448 -1 1 s 0.447 1 1 1 h 17.688 c 0.553 0 1 -0.448 1 -1 S 68.928 39.974 68.375 39.974 z" style="stroke: none; stroke-width: 1; stroke-dasharray: none; stroke-linecap: butt; stroke-linejoin: miter; stroke-miterlimit: 10; fill: rgb(255,255,255); fill-rule: nonzero; opacity: 1;" transform=" matrix(1 0 0 1 0 0) " stroke-linecap="round" />
	<path d="M 32.02 54.188 c -6.283 0 -11.395 5.111 -11.395 11.395 s 5.111 11.396 11.395 11.396 s 11.395 -5.112 11.395 -11.396 S 38.303 54.188 32.02 54.188 z M 32.02 74.979 c -5.18 0 -9.395 -4.215 -9.395 -9.396 c 0 -5.18 4.214 -9.395 9.395 -9.395 c 5.181 0 9.395 4.215 9.395 9.395 C 41.415 70.764 37.201 74.979 32.02 74.979 z" style="stroke: none; stroke-width: 1; stroke-dasharray: none; stroke-linecap: butt; stroke-linejoin: miter; stroke-miterlimit: 10; fill: rgb(255,255,255); fill-rule: nonzero; opacity: 1;" transform=" matrix(1 0 0 1 0 0) " stroke-linecap="round" />
	<path d="M 68.375 60.026 H 50.688 c -0.553 0 -1 0.447 -1 1 s 0.447 1 1 1 h 17.688 c 0.553 0 1 -0.447 1 -1 S 68.928 60.026 68.375 60.026 z" style="stroke: none; stroke-width: 1; stroke-dasharray: none; stroke-linecap: butt; stroke-linejoin: miter; stroke-miterlimit: 10; fill: rgb(255,255,255); fill-rule: nonzero; opacity: 1;" transform=" matrix(1 0 0 1 0 0) " stroke-linecap="round" />
	<path d="M 68.375 69.141 H 50.688 c -0.553 0 -1 0.447 -1 1 s 0.447 1 1 1 h 17.688 c 0.553 0 1 -0.447 1 -1 S 68.928 69.141 68.375 69.141 z" style="stroke: none; stroke-width: 1; stroke-dasharray: none; stroke-linecap: butt; stroke-linejoin: miter; stroke-miterlimit: 10; fill: rgb(255,255,255); fill-rule: nonzero; opacity: 1;" transform=" matrix(1 0 0 1 0 0) " stroke-linecap="round" />
	<path d="M 36.056 60.587 c -0.429 -0.347 -1.058 -0.28 -1.406 0.15 l -2.63 3.255 l -2.63 -3.255 c -0.348 -0.431 -0.977 -0.497 -1.406 -0.15 c -0.43 0.348 -0.497 0.978 -0.149 1.406 l 2.9 3.59 l -2.9 3.59 c -0.347 0.429 -0.28 1.059 0.149 1.406 c 0.185 0.149 0.407 0.222 0.628 0.222 c 0.292 0 0.581 -0.127 0.778 -0.372 l 2.63 -3.255 l 2.63 3.255 c 0.198 0.245 0.487 0.372 0.778 0.372 c 0.221 0 0.443 -0.072 0.628 -0.222 c 0.43 -0.348 0.497 -0.978 0.149 -1.406 l -2.9 -3.59 l 2.9 -3.59 C 36.553 61.564 36.486 60.935 36.056 60.587 z" style="stroke: none; stroke-width: 1; stroke-dasharray: none; stroke-linecap: butt; stroke-linejoin: miter; stroke-miterlimit: 10; fill: rgb(255,255,255); fill-rule: nonzero; opacity: 1;" transform=" matrix(1 0 0 1 0 0) " stroke-linecap="round" />
</g>
</svg>